<svg xmlns="http://www.w3.org/2000/svg" focusable="false" role="presentation" viewBox="0 0 24 24"><path d="M16.5132 21.9981H14.7202C14.4512 21.9981 14.2302 21.8751 14.1572 21.5791L11.9972 13.9751L9.83721 21.5811C9.76421 21.8771 9.54321 22.0001 9.27421 22.0001H7.48121C7.18721 22.0001 7.01421 21.8771 6.91821 21.5811C5.76321 18.3731 4.97921 15.1851 4.31621 11.9771C4.24321 11.6541 4.38921 11.4331 4.73121 11.4331H6.32821C6.62221 11.4331 6.81821 11.5811 6.87021 11.8521C7.28521 14.1251 7.77921 16.4671 8.44221 18.7671L10.3562 11.8521C10.4292 11.5811 10.6252 11.4331 10.9192 11.4331H13.0792C13.3732 11.4331 13.5692 11.5811 13.6422 11.8521L15.5562 18.7671C16.2192 16.4731 16.7132 14.1251 17.1282 11.8521C17.1762 11.5811 17.3742 11.4331 17.6702 11.4331H19.2672C19.6092 11.4331 19.7572 11.6561 19.6822 11.9771C19.0192 15.1861 18.2352 18.3731 17.0812 21.5811C16.9812 21.8771 16.8102 21.9981 16.5162 21.9981H16.5132Z" fill="#0f2e66"></path><path d="M8.04936 6.081C9.10436 5.024 10.5064 4.444 11.9994 4.442C13.4904 4.442 14.8914 5.022 15.9434 6.075C16.4914 6.623 16.9094 7.264 17.1864 7.962C17.2494 8.123 17.4074 8.229 17.5804 8.229H19.2674C19.5494 8.229 19.7574 7.958 19.6764 7.689C19.2994 6.44 18.6194 5.297 17.6724 4.348C16.1574 2.836 14.1434 2 12.0014 2C9.85936 2 7.84036 2.836 6.32436 4.354C5.37536 5.303 4.69636 6.446 4.32236 7.691C4.24136 7.96 4.44936 8.231 4.73136 8.231H6.41836C6.59136 8.231 6.74836 8.125 6.81236 7.964C7.08736 7.267 7.50436 6.627 8.04936 6.081Z" fill="#fc5b05"></path></svg>